<?xml version="1.0" standalone="no"?>
<!DOCTYPE svg PUBLIC "-//W3C//DTD SVG 20010904//EN"
 "http://www.w3.org/TR/2001/REC-SVG-20010904/DTD/svg10.dtd">
<svg version="1.0" xmlns="http://www.w3.org/2000/svg"
 width="200.000000pt" height="200.000000pt" viewBox="0 0 200.000000 200.000000"
 preserveAspectRatio="xMidYMid meet">
<metadata>
Created by potrace 1.14, written by Peter Selinger 2001-2017
</metadata>
<g transform="translate(0.000000,200.000000) scale(0.100000,-0.100000)"
fill="#000000" stroke="none">
<path d="M1246 1899 c5 -9 2 -11 -9 -6 -10 4 -16 2 -14 -5 1 -8 -12 -12 -35
-12 -21 0 -38 -3 -38 -8 0 -4 -5 -8 -11 -8 -5 0 -8 4 -4 9 3 5 0 13 -6 17 -8
4 -9 3 -5 -4 4 -7 2 -12 -4 -12 -6 0 -9 -4 -6 -8 2 -4 -5 -9 -17 -9 -55 -3
-82 -12 -79 -24 2 -8 0 -11 -4 -7 -4 4 -14 2 -22 -5 -13 -10 -14 -9 -8 1 7 11
4 12 -11 3 -11 -6 -24 -7 -28 -3 -5 4 -5 1 -1 -5 4 -7 6 -13 4 -13 -2 0 -18
-4 -36 -9 -18 -6 -30 -6 -27 -1 3 5 1 11 -5 15 -5 3 -10 0 -10 -7 0 -8 -5 -6
-11 5 -6 9 -14 15 -20 12 -5 -4 -9 -1 -9 6 0 6 -8 9 -19 6 -12 -3 -22 1 -26
11 -5 14 -7 14 -15 2 -6 -8 -10 -10 -10 -5 0 7 -36 11 -95 11 -52 0 -95 -5
-95 -9 0 -5 -8 -3 -17 4 -11 10 -14 10 -9 2 5 -9 0 -13 -14 -13 -14 0 -19 -4
-14 -12 5 -10 4 -10 -5 -2 -10 9 -20 8 -42 -3 -16 -8 -29 -18 -29 -23 0 -5 -6
-7 -14 -4 -7 3 -20 -2 -29 -10 -8 -8 -17 -12 -21 -9 -3 4 -6 1 -6 -5 0 -7 -7
-12 -15 -12 -9 0 -18 -7 -21 -15 -4 -8 -13 -15 -21 -15 -8 0 -12 -4 -9 -9 3
-5 -1 -14 -9 -21 -13 -11 -15 -10 -10 6 3 10 -1 7 -8 -8 -7 -15 -23 -36 -36
-47 -13 -12 -20 -21 -15 -21 5 0 5 -4 -1 -8 -5 -4 -16 -18 -23 -31 -11 -19
-11 -22 0 -15 10 6 11 5 1 -8 -7 -8 -10 -18 -6 -21 3 -4 0 -7 -7 -7 -7 0 -10
-3 -7 -6 3 -4 2 -16 -4 -27 -8 -14 -8 -18 0 -13 6 4 11 3 11 -3 0 -5 -4 -12
-9 -15 -13 -8 -19 -66 -8 -73 6 -4 7 -1 2 7 -5 9 -4 11 3 6 9 -5 9 -13 2 -27
-8 -13 -7 -19 0 -19 6 0 8 -5 4 -12 -11 -18 -12 -48 -1 -41 5 3 7 -3 6 -13 -2
-11 0 -25 5 -33 7 -10 5 -12 -5 -6 -10 6 -9 3 2 -11 9 -10 17 -27 18 -36 3
-41 5 -48 14 -48 5 0 4 -6 -2 -14 -8 -10 -9 -15 -1 -18 6 -2 12 -13 13 -25 0
-12 4 -20 8 -17 4 2 10 0 14 -6 3 -5 2 -10 -3 -10 -6 0 -8 -9 -5 -20 3 -11 10
-20 15 -20 6 0 5 -7 -2 -15 -12 -14 -7 -19 13 -16 5 1 6 -3 2 -9 -3 -6 0 -24
8 -40 11 -22 12 -32 4 -39 -21 -17 -25 -16 -45 2 -11 10 -29 20 -39 22 -10 1
-17 9 -15 16 2 8 0 11 -4 7 -4 -4 -14 -2 -22 5 -13 10 -14 9 -7 -3 8 -13 6
-13 -8 -1 -9 7 -14 17 -11 22 3 5 -1 6 -9 3 -8 -3 -17 2 -20 10 -4 9 -13 16
-22 16 -8 0 -15 7 -15 15 0 13 -4 14 -23 4 -19 -11 -20 -10 -10 2 8 10 9 20 3
29 -7 11 -10 12 -10 2 0 -8 -5 -10 -12 -6 -10 5 -10 4 -1 -6 6 -7 9 -19 6 -26
-3 -9 2 -14 17 -14 17 0 21 -4 16 -17 -4 -10 -4 -14 0 -11 8 9 34 -16 34 -33
0 -7 3 -10 6 -6 8 8 44 -25 44 -41 0 -7 4 -11 9 -7 5 3 17 -2 25 -11 9 -8 16
-12 16 -8 0 4 7 -1 16 -12 8 -10 13 -13 9 -6 -9 18 3 15 27 -7 11 -11 27 -17
35 -14 14 6 60 -35 56 -49 -2 -5 2 -8 7 -8 6 0 10 -6 9 -12 -3 -20 12 -49 22
-42 5 3 6 -2 3 -10 -3 -9 3 -32 15 -52 12 -19 16 -32 10 -29 -12 8 9 -32 29
-53 18 -20 15 -27 -6 -11 -16 13 -16 13 1 -7 9 -11 14 -24 10 -27 -3 -4 -1 -7
6 -7 7 0 10 -4 7 -9 -3 -5 1 -12 10 -15 8 -3 12 -11 9 -16 -4 -6 -1 -17 5 -25
10 -12 10 -15 0 -15 -9 0 -8 -5 3 -18 10 -10 17 -26 17 -35 0 -9 5 -17 11 -17
8 0 8 -5 -1 -15 -9 -11 -9 -15 -1 -15 7 0 9 -4 6 -10 -3 -5 -1 -10 5 -10 6 0
14 -8 17 -17 4 -10 16 -27 26 -38 11 -11 17 -15 14 -9 -3 6 0 11 8 11 8 0 12
-8 10 -20 -3 -14 -1 -16 9 -8 9 7 16 7 26 -2 10 -9 11 -9 6 1 -6 9 -2 11 16 7
18 -5 30 1 48 22 14 15 25 30 26 33 12 38 18 49 27 43 6 -4 8 0 4 10 -3 10 -3
17 2 17 5 0 8 10 7 23 -1 15 4 21 14 19 12 -3 12 -1 3 9 -12 12 -7 42 6 35 4
-3 6 11 6 30 -1 19 2 34 6 34 4 0 10 7 13 16 4 10 2 13 -7 9 -6 -4 -5 -1 3 7
9 7 15 22 15 33 0 11 5 20 12 20 6 0 20 10 31 23 21 24 37 30 27 10 -4 -7 1
-4 9 6 9 11 16 14 16 7 0 -7 4 -9 10 -6 5 3 15 -5 22 -19 6 -14 14 -26 18 -26
4 0 7 -6 7 -12 0 -7 4 -22 9 -32 6 -15 4 -17 -7 -11 -11 7 -12 6 -2 -7 7 -8
10 -18 6 -21 -3 -4 -1 -7 6 -7 7 0 9 -5 5 -12 -12 -19 -12 -48 -1 -55 6 -3 7
-1 3 5 -4 7 -2 12 3 12 15 0 14 -13 -1 -29 -9 -10 -9 -12 -1 -7 15 8 13 -45
-2 -56 -7 -5 -6 -8 0 -8 6 0 10 -12 9 -27 -1 -16 -7 -27 -13 -25 -7 1 -10 -2
-6 -8 3 -6 10 -8 14 -6 4 3 7 -5 6 -17 -1 -12 2 -30 7 -39 5 -10 5 -18 0 -18
-4 0 -8 -9 -8 -20 0 -11 4 -20 8 -20 4 0 8 -7 8 -16 0 -9 5 -12 12 -8 7 5 9 0
6 -14 -4 -16 -2 -19 10 -15 10 4 13 2 8 -5 -5 -9 7 -12 41 -11 47 0 104 16 73
19 -8 1 -4 5 10 9 14 4 24 13 22 20 -1 7 6 11 15 9 11 -2 17 2 15 10 -1 8 1
11 6 8 10 -6 43 30 35 38 -4 3 2 6 11 6 12 0 16 5 12 16 -3 8 -2 13 3 10 5 -3
17 2 28 12 10 9 12 13 3 8 -8 -5 -2 3 13 18 15 14 24 26 20 26 -4 0 3 10 17
21 14 11 19 18 13 14 -9 -4 -11 -1 -7 9 3 9 10 13 15 10 5 -3 9 2 9 10 0 9 5
16 11 16 5 0 8 4 5 9 -3 5 1 12 9 15 8 3 15 9 14 13 -3 20 2 34 11 28 5 -3 14
13 20 36 9 33 14 39 22 28 7 -10 8 -8 3 9 -4 14 -2 22 6 22 7 0 10 3 6 6 -3 4
1 13 9 21 8 8 12 19 9 24 -4 5 -1 9 6 9 7 0 10 3 6 6 -3 3 3 22 14 41 11 20
18 42 15 50 -3 8 -1 11 4 8 6 -3 10 3 10 14 0 12 4 21 9 21 4 0 8 10 7 23 0
12 4 21 10 20 8 -1 10 6 6 19 -3 12 -1 19 4 15 5 -3 10 8 11 25 0 17 6 34 13
38 15 10 15 21 -2 31 -10 7 -9 9 5 9 13 0 16 6 13 25 -3 15 0 25 7 25 7 0 6 4
-3 10 -13 8 -13 10 2 10 11 0 15 5 12 15 -4 8 -1 22 6 30 10 12 10 15 -1 15
-12 0 -12 2 0 9 7 5 11 13 9 17 -9 15 8 47 25 50 9 1 17 -3 17 -9 0 -7 5 -5
10 3 5 8 10 10 10 4 0 -8 11 -9 35 -4 22 5 37 4 42 -3 3 -5 2 -7 -3 -4 -6 3
-16 1 -24 -5 -12 -8 -12 -9 2 -5 9 3 19 1 22 -6 3 -9 5 -9 5 1 1 6 6 12 12 12
5 0 8 -4 5 -8 -2 -4 4 -8 14 -8 10 0 17 3 14 7 -2 4 1 9 8 12 7 2 2 2 -10 0
-14 -2 -21 0 -18 6 9 13 -22 28 -56 26 -15 0 -25 2 -23 6 3 3 -6 7 -19 7 -13
0 -34 7 -47 16 -13 9 -18 16 -11 16 7 0 10 4 7 10 -4 6 1 7 11 3 13 -5 15 -3
10 8 -4 8 0 5 8 -5 11 -14 16 -15 16 -6 0 10 3 11 11 3 6 -6 18 -9 27 -6 11 5
13 2 7 -6 -6 -10 -3 -11 14 -2 18 10 21 9 22 -6 0 -16 1 -16 9 2 6 14 9 16 10
5 2 -8 2 -18 2 -21 -1 -3 5 -6 13 -6 8 0 12 4 9 9 -9 15 9 8 20 -8 10 -13 12
-13 12 5 0 11 -3 19 -6 19 -19 -2 -30 3 -25 12 4 6 -1 7 -11 3 -13 -5 -16 -3
-11 9 4 12 0 15 -19 13 -15 -1 -24 3 -24 12 0 8 -4 11 -10 8 -5 -3 -20 1 -33
10 -13 8 -27 12 -30 8 -4 -3 -7 1 -7 10 0 10 -4 17 -9 17 -4 0 -7 10 -7 23 1
12 -3 28 -8 36 -9 12 -7 13 8 8 14 -6 16 -4 9 5 -5 7 -9 32 -8 55 0 29 -2 39
-10 33 -7 -6 -11 -2 -11 10 0 10 3 17 6 15 4 -2 7 2 7 10 0 8 -3 12 -7 10 -4
-2 -8 8 -8 23 -3 43 -6 56 -25 82 -9 13 -17 32 -17 42 0 9 -4 20 -10 23 -6 3
-8 -2 -5 -12 3 -10 0 -7 -7 7 -7 14 -20 32 -28 41 -8 9 -21 25 -29 37 -8 11
-18 19 -23 16 -4 -3 -11 2 -14 10 -3 9 -15 16 -25 16 -10 0 -19 5 -19 11 0 5
6 7 13 3 7 -4 9 -3 4 2 -5 5 -12 9 -15 9 -4 0 -13 4 -21 9 -10 6 -12 6 -6 -3
5 -9 1 -9 -14 1 -12 7 -21 17 -21 22 0 4 -8 2 -17 -5 -11 -10 -14 -10 -9 -1 8
13 6 14 -34 16 -14 1 -31 6 -39 10 -9 6 -12 5 -7 -2 8 -14 -12 -10 -53 12 -20
11 -30 13 -25 5z m24 -13 c0 -2 -7 -7 -16 -10 -8 -3 -12 -2 -9 4 6 10 25 14
25 6z m-84 -98 c5 -7 3 -8 -6 -3 -9 5 -11 4 -6 -4 6 -9 11 -9 23 0 11 10 19
10 34 1 10 -7 19 -8 19 -4 0 5 7 9 15 9 8 0 15 -5 15 -10 0 -5 7 -4 15 3 9 8
15 9 15 2 0 -6 9 -9 19 -7 11 2 25 -3 32 -11 6 -8 18 -14 26 -14 9 0 11 -5 7
-12 -5 -9 -2 -9 9 1 15 12 17 11 17 -2 0 -9 10 -21 21 -28 17 -9 20 -8 14 2
-5 8 -4 10 3 5 7 -4 12 -14 12 -22 0 -8 5 -12 10 -9 6 3 10 -1 10 -10 0 -9 3
-14 8 -11 4 2 16 -13 26 -35 11 -21 26 -39 35 -39 11 0 12 -3 4 -11 -12 -12 6
-56 29 -70 9 -6 8 -9 -7 -9 -17 -1 -18 -2 -4 -10 9 -5 15 -19 14 -32 -1 -13 3
-26 9 -30 7 -5 6 -8 -3 -8 -11 0 -10 -4 5 -16 15 -13 16 -15 2 -10 -12 3 -15
1 -11 -9 3 -8 8 -13 12 -10 4 2 8 -2 8 -10 0 -8 -5 -13 -11 -12 -6 1 -10 -3
-9 -10 3 -12 -14 -12 -34 0 -6 4 -14 1 -16 -5 -4 -10 -8 -9 -16 2 -8 12 -13
12 -23 2 -6 -6 -23 -12 -36 -12 -13 0 -32 -5 -43 -10 -14 -8 -19 -7 -19 2 0
10 -2 10 -9 -1 -5 -7 -14 -10 -20 -7 -6 4 -11 2 -11 -4 0 -7 -7 -9 -16 -6 -10
4 -13 2 -8 -6 5 -8 2 -9 -9 -5 -10 4 -17 1 -17 -5 0 -6 -3 -8 -7 -5 -3 4 -12
2 -19 -4 -8 -6 -20 -9 -29 -6 -8 4 -17 1 -21 -5 -4 -6 -3 -8 4 -4 6 3 13 2 16
-3 7 -10 -20 -9 -30 2 -4 3 -1 14 7 24 9 11 10 14 2 9 -7 -4 -13 -2 -13 3 0 6
6 11 13 12 10 0 10 2 0 6 -7 2 -13 13 -13 23 0 10 -5 22 -10 25 -6 4 -8 11 -5
16 4 5 0 9 -7 9 -8 0 -20 9 -28 20 -11 15 -17 17 -29 7 -10 -8 -13 -8 -8 -1 4
7 0 15 -9 18 -8 3 -12 2 -9 -4 9 -15 -2 -12 -19 6 -15 14 -16 14 -16 0 0 -9
-5 -16 -11 -16 -5 0 -8 4 -5 8 3 5 -1 9 -9 9 -8 0 -13 -5 -12 -11 1 -6 -4 -10
-10 -9 -7 2 -13 -2 -13 -7 0 -5 -7 -10 -16 -10 -8 0 -12 -4 -9 -10 3 -5 1 -10
-4 -10 -6 0 -10 -3 -10 -7 3 -19 -2 -34 -9 -29 -5 3 -8 -16 -7 -42 4 -71 4
-72 23 -73 9 0 12 -3 5 -6 -10 -3 -10 -7 0 -18 9 -9 14 -10 19 -1 5 7 8 5 8
-6 0 -11 6 -16 19 -13 11 2 22 -2 25 -10 6 -18 -29 -49 -48 -42 -10 4 -13 1
-9 -9 4 -10 0 -12 -13 -7 -12 4 -15 3 -10 -5 6 -11 -5 -17 -26 -13 -5 0 -8 -4
-8 -10 0 -5 -4 -8 -9 -4 -6 3 -13 0 -18 -7 -4 -7 -17 -20 -27 -28 -18 -13 -19
-13 -11 0 5 9 -1 7 -15 -5 -16 -14 -24 -16 -27 -7 -3 6 -11 12 -19 12 -9 0
-12 5 -9 10 3 6 1 11 -4 11 -32 4 -36 6 -34 15 1 5 -7 10 -18 10 -10 0 -19 -3
-19 -6 0 -9 -33 -6 -49 5 -10 5 -12 4 -7 -3 4 -7 2 -12 -4 -12 -6 0 -8 -4 -5
-10 3 -5 -1 -10 -9 -10 -19 0 -57 -40 -50 -52 3 -4 -1 -8 -8 -8 -9 0 -10 -3
-2 -8 6 -4 10 -14 8 -22 -2 -8 -5 -24 -7 -35 -3 -11 -10 -19 -16 -18 -6 2 -11
-2 -11 -9 0 -6 -3 -8 -6 -5 -4 3 -16 2 -27 -4 -13 -8 -17 -8 -13 -1 10 17 -34
5 -58 -15 -20 -17 -20 -17 -6 1 14 18 13 19 -5 10 -11 -5 -27 -9 -36 -9 -16 0
-77 55 -61 55 15 0 9 29 -7 35 -13 5 -13 7 -1 15 12 8 12 10 -3 16 -11 4 -17
17 -17 36 0 16 -4 27 -8 24 -4 -2 -8 3 -9 12 -3 44 -8 62 -16 62 -5 0 -7 6 -4
14 3 8 0 20 -8 26 -14 12 -14 27 -1 49 6 10 5 12 -2 7 -10 -6 -17 6 -11 17 1
1 -8 22 -20 47 -22 45 -22 45 -1 20 18 -22 20 -22 11 -3 -6 12 -8 30 -5 40 5
15 4 15 -5 3 -6 -8 -11 -13 -12 -10 -6 32 -5 57 3 68 7 8 7 12 -2 12 -10 0
-10 3 -1 14 9 11 9 16 0 22 -8 5 -4 13 12 25 13 10 19 19 12 19 -8 0 -7 9 4
30 8 17 19 27 25 24 6 -4 8 -2 5 3 -4 6 4 22 17 36 13 14 21 28 18 31 -3 3 2
6 12 6 10 0 14 5 11 11 -4 6 0 9 11 7 11 -2 19 3 19 11 0 8 9 15 20 17 11 2
24 9 30 16 5 7 20 13 32 12 12 -1 20 3 17 7 -5 8 10 13 21 7 2 -2 11 6 20 17
l15 20 -7 -20 c-6 -19 -6 -19 14 -2 21 19 38 23 28 7 -3 -5 -1 -10 4 -10 6 0
11 4 11 8 0 4 11 9 26 10 14 1 23 -2 19 -8 -3 -6 -1 -10 4 -10 6 0 11 8 11 18
0 12 2 14 8 4 5 -8 16 -10 27 -6 13 5 16 4 11 -5 -8 -12 15 -11 25 1 3 5 14 2
25 -6 17 -13 17 -16 4 -30 -9 -9 -27 -17 -42 -18 -15 -1 -26 -5 -26 -8 2 -18
-4 -23 -12 -10 -7 12 -12 12 -29 -4 -11 -10 -25 -15 -33 -11 -10 6 -10 5 -1
-5 6 -7 9 -20 6 -29 -4 -12 -1 -10 11 4 10 11 15 15 12 8 -4 -6 -2 -15 4 -18
6 -4 9 -1 8 7 -2 7 3 12 10 10 9 -1 11 2 6 10 -4 7 3 4 15 -6 18 -17 21 -17
15 -3 -5 14 -1 16 26 10 25 -5 31 -3 25 6 -6 10 -3 11 15 1 18 -10 21 -9 15 1
-6 9 -3 11 8 6 10 -3 17 -2 17 3 0 5 7 7 15 4 8 -4 15 -1 15 7 0 7 3 10 6 6 9
-8 67 14 81 32 10 13 12 13 13 2 0 -11 4 -10 16 5 8 10 13 12 9 4 -4 -8 3 -4
14 9 12 13 21 17 21 10 0 -8 6 -5 16 7 8 10 13 13 9 7 -8 -17 5 -16 28 2 11 7
25 11 33 8 8 -3 14 0 14 6 0 8 5 9 19 2 14 -8 22 -7 31 4 15 18 17 18 26 3z
m-513 -123 c-3 -9 -8 -14 -10 -11 -3 3 -2 9 2 15 9 16 15 13 8 -4z m911 -420
c-4 -10 -2 -13 8 -10 9 4 15 0 15 -10 0 -12 -7 -15 -23 -12 -13 2 -21 1 -19
-4 3 -4 1 -10 -5 -14 -5 -3 -10 -2 -10 3 0 6 -7 13 -16 16 -8 3 -12 2 -9 -3 3
-5 1 -12 -5 -16 -5 -3 -10 -1 -10 4 0 6 -5 11 -11 11 -5 0 -8 -4 -5 -8 2 -4
-3 -9 -12 -10 -37 -4 -51 -8 -66 -21 -14 -12 -16 -12 -10 3 3 9 1 16 -5 16 -6
0 -11 -7 -11 -16 0 -10 -5 -14 -16 -10 -8 3 -12 2 -9 -4 5 -9 -15 -15 -37 -11
-5 0 -7 -4 -5 -10 1 -6 -4 -14 -12 -17 -9 -3 -11 0 -7 9 4 8 0 5 -9 -6 -14
-17 -17 -18 -26 -5 -9 13 -10 13 -6 -1 3 -10 -5 -24 -23 -37 -31 -23 -70 -25
-70 -4 0 7 5 10 12 6 8 -5 9 -2 5 10 -4 11 -3 15 4 11 6 -4 17 1 25 11 9 11
13 13 9 4 -4 -8 4 -3 17 11 13 14 30 23 37 21 9 -3 11 0 6 8 -5 8 -4 11 3 6 6
-3 17 1 25 9 19 18 31 20 22 3 -4 -7 1 -4 10 7 9 11 23 19 31 17 8 -2 14 3 14
9 0 7 3 9 7 6 3 -4 13 -1 21 6 13 10 14 9 7 -3 -7 -12 -6 -13 6 -4 21 16 51
26 44 14 -3 -6 -2 -10 3 -10 6 0 12 6 15 14 3 8 14 13 24 12 14 -2 47 4 70 13
1 1 0 -6 -3 -14z m261 -93 c-3 -3 -11 0 -18 7 -9 10 -8 11 6 5 10 -3 15 -9 12
-12z m-253 -9 c4 -2 2 -15 -4 -28 -6 -14 -16 -21 -22 -18 -6 4 -5 -1 3 -10 7
-9 9 -17 4 -17 -5 0 -9 -12 -8 -27 0 -16 -4 -31 -9 -35 -10 -7 -16 -32 -19
-85 -1 -17 -6 -31 -12 -30 -5 1 -10 -10 -9 -26 1 -21 -2 -25 -11 -17 -10 8
-12 3 -9 -26 2 -25 -1 -34 -9 -31 -7 3 -13 -7 -14 -26 -1 -17 -8 -35 -14 -41
-9 -8 -10 -7 -4 4 6 10 1 8 -13 -4 -12 -11 -22 -15 -22 -10 0 5 -9 10 -19 10
-11 0 -17 -4 -15 -8 3 -4 1 -8 -5 -8 -5 0 -13 5 -16 10 -5 8 -11 7 -21 -1 -8
-6 -14 -7 -14 -2 0 5 -7 10 -15 10 -9 0 -14 -6 -11 -14 3 -8 1 -11 -4 -8 -6 3
-10 1 -10 -4 0 -10 29 -16 53 -12 4 0 7 -3 7 -8 0 -5 13 -8 30 -7 24 2 31 -3
39 -26 7 -20 7 -27 -1 -22 -5 4 -14 0 -19 -7 -6 -10 -9 -11 -9 -1 0 6 -5 12
-11 12 -5 0 -7 -5 -3 -11 5 -8 1 -8 -13 0 -11 6 -23 7 -27 4 -3 -3 -6 -1 -6 5
0 6 -7 9 -15 6 -8 -4 -12 -11 -9 -16 4 -6 -2 -7 -17 -3 -22 7 -22 7 -6 -10 14
-14 20 -15 33 -5 12 11 13 10 8 -6 -6 -15 -4 -17 6 -7 11 10 17 10 31 -3 21
-19 14 -61 -7 -43 -12 10 -13 8 -8 -7 6 -15 4 -17 -6 -7 -11 10 -17 10 -29 0
-10 -8 -13 -8 -8 0 8 13 -18 12 -30 -2 -5 -4 -2 -5 6 0 11 6 13 4 8 -8 -4 -12
-2 -14 10 -10 11 4 14 2 9 -5 -5 -8 -2 -10 8 -6 28 11 32 -26 5 -48 -13 -11
-18 -17 -11 -13 6 3 12 2 12 -4 0 -5 -9 -13 -20 -16 -11 -3 -20 -11 -20 -17 0
-6 -21 -32 -47 -57 -27 -25 -46 -50 -45 -56 2 -5 0 -7 -4 -3 -4 4 -14 2 -22
-5 -13 -10 -15 -9 -8 3 4 8 0 6 -8 -4 -9 -11 -16 -14 -16 -8 0 7 -5 12 -11 12
-5 0 -7 -6 -3 -12 5 -9 2 -8 -9 1 -13 10 -14 17 -7 26 8 9 8 15 0 20 -8 5 -7
11 2 23 7 9 8 13 2 9 -7 -4 -10 17 -10 68 1 41 -1 75 -5 75 -4 0 -5 9 -2 20 3
13 0 20 -8 20 -11 0 -11 2 1 10 11 7 11 10 2 10 -7 0 -11 4 -7 9 3 5 1 12 -4
16 -6 3 -8 12 -4 20 3 8 0 15 -5 15 -6 0 -9 9 -7 20 2 11 -1 20 -6 20 -6 0 -8
4 -5 9 4 5 -6 19 -21 31 -16 12 -21 19 -13 15 8 -4 6 0 -5 9 -11 8 -26 20 -33
27 -16 13 -125 14 -130 0 -2 -5 -10 -7 -19 -4 -11 4 -14 2 -9 -5 4 -7 -3 -14
-19 -18 -13 -3 -23 -10 -20 -14 2 -4 -4 -15 -15 -25 -11 -10 -20 -30 -20 -44
0 -21 -2 -23 -11 -11 -8 12 -10 9 -6 -13 3 -19 1 -27 -7 -24 -8 3 -12 -6 -11
-29 1 -19 -4 -39 -11 -45 -7 -5 -10 -22 -8 -35 3 -14 1 -23 -4 -20 -5 3 -8 -8
-7 -24 1 -16 -3 -28 -9 -27 -6 1 -10 -4 -9 -10 2 -8 -7 -13 -23 -13 -17 0 -23
-4 -19 -13 4 -6 0 -3 -9 8 -8 11 -20 26 -26 33 -6 7 -12 23 -13 35 -1 12 -9
29 -17 37 -10 10 -11 11 -1 5 11 -8 11 -4 -2 22 -10 18 -17 39 -17 48 0 8 -4
15 -9 15 -11 0 -23 36 -24 72 -1 15 -5 26 -10 25 -5 -1 -13 8 -18 21 -5 15 -5
21 1 17 5 -3 7 1 4 9 -3 8 -12 17 -21 20 -13 5 -13 9 -2 23 8 9 9 14 3 10 -7
-4 -14 2 -17 13 -3 11 -1 18 4 14 5 -3 9 0 9 5 0 6 5 11 11 11 5 0 7 -6 3 -12
-6 -10 -4 -10 7 -2 8 6 26 11 42 10 15 -1 27 1 27 4 0 3 15 5 32 4 18 -1 39 2
46 8 7 6 25 11 40 12 15 1 33 5 41 10 10 6 12 5 7 -2 -4 -7 -1 -12 6 -12 7 -1
2 -7 -12 -15 -15 -8 -29 -10 -35 -4 -5 5 -13 9 -18 9 -4 0 6 -13 24 -30 32
-28 34 -29 53 -12 11 9 16 12 13 5 -5 -8 0 -11 13 -10 11 1 20 5 20 9 0 11 23
6 32 -7 4 -5 8 1 8 15 0 14 4 21 8 15 10 -14 32 -17 32 -4 0 5 5 7 10 4 6 -3
10 -2 10 3 0 5 8 9 18 9 34 0 43 3 38 12 -3 5 1 12 10 15 10 4 13 2 8 -7 -4
-6 4 -2 17 9 25 23 46 21 67 -5 10 -14 11 -13 6 4 -7 20 -6 20 8 1 10 -12 21
-17 32 -13 10 4 15 3 11 -3 -7 -11 23 -9 43 4 7 4 16 5 19 2 4 -3 1 -6 -5 -6
-7 0 -12 -5 -12 -12 0 -6 10 -2 23 9 12 11 27 19 34 16 6 -2 15 1 19 8 4 8 3
9 -4 5 -8 -5 -10 -2 -6 8 3 9 10 14 14 11 11 -7 23 31 15 44 -3 5 0 13 6 17 8
5 9 3 4 -7 -5 -8 -4 -11 0 -6 5 4 9 16 10 27 1 15 -1 17 -12 8 -11 -8 -12 -7
-7 6 3 9 10 16 15 16 5 0 8 5 6 11 -2 13 54 49 66 42 4 -2 7 3 7 11 0 9 7 13
20 11 11 -2 23 1 26 7 5 7 2 8 -6 3 -9 -5 -11 -4 -6 4 4 6 15 10 24 9 10 -2
16 3 14 10 -1 8 2 11 8 7 5 -3 10 -1 10 6 0 9 3 9 14 0 11 -9 16 -9 22 0 5 8
3 10 -7 4 -10 -6 -11 -5 -3 4 6 7 21 13 33 14 11 1 21 5 21 9 0 4 7 5 15 2 8
-4 15 -1 15 6 0 10 52 12 72 3z m-616 -203 c-1 -18 -18 -39 -28 -34 -4 2 -9 0
-13 -6 -3 -5 -15 -15 -27 -21 -15 -8 -19 -8 -13 1 5 8 0 7 -14 -2 -17 -10 -23
-10 -33 0 -11 11 -10 12 5 7 11 -5 17 -2 17 7 0 7 9 21 20 31 13 11 20 13 20
5 0 -7 6 -3 14 8 17 23 54 27 52 4z"/>
<path d="M705 1428 c-11 -6 -23 -15 -26 -20 -3 -6 -9 -9 -13 -9 -19 3 -29 0
-23 -6 4 -3 -1 -12 -11 -20 -10 -9 -11 -12 -2 -7 11 6 11 2 -2 -12 -14 -16
-15 -23 -5 -34 7 -8 8 -11 1 -7 -7 4 -15 0 -18 -9 -3 -8 -2 -12 3 -9 5 3 12 1
15 -4 4 -5 2 -12 -4 -16 -14 -8 5 -43 42 -77 31 -30 44 -36 32 -15 -4 6 2 3
14 -7 14 -12 22 -14 22 -7 0 7 4 9 10 6 5 -3 20 0 32 6 22 12 22 11 8 -7 -15
-18 -14 -18 13 -1 15 10 33 15 39 11 7 -4 8 -3 4 4 -4 7 -2 12 5 12 7 0 9 3 6
7 -4 3 0 11 8 17 8 6 16 20 18 31 1 11 6 25 10 31 3 6 3 14 0 18 -4 4 -9 18
-11 33 -1 14 -13 34 -25 45 -12 11 -16 16 -8 12 10 -5 12 -3 7 5 -5 7 -14 10
-21 7 -7 -2 -16 2 -19 10 -3 9 -9 13 -14 10 -4 -2 -14 -1 -22 4 -9 5 -20 4
-29 -3 -12 -9 -13 -9 -7 1 9 15 -2 15 -29 0z"/>
<path d="M1046 1154 c-5 -14 -4 -15 9 -4 17 14 19 20 6 20 -5 0 -12 -7 -15
-16z"/>
<path d="M637 789 c7 -7 15 -10 18 -7 3 3 -2 9 -12 12 -14 6 -15 5 -6 -5z"/>
<path d="M1273 715 c0 -8 4 -12 9 -9 4 3 8 9 8 15 0 5 -4 9 -8 9 -5 0 -9 -7
-9 -15z"/>
<path d="M270 919 c0 -5 5 -7 10 -4 6 3 10 8 10 11 0 2 -4 4 -10 4 -5 0 -10
-5 -10 -11z"/>
</g>
</svg>
